<?xml version="1.0" encoding="UTF-8"?>
<svg width="142px" height="142px" viewBox="0 0 142 142" version="1.1" xmlns="http://www.w3.org/2000/svg" xmlns:xlink="http://www.w3.org/1999/xlink">
    <!-- Generator: Sketch 60.1 (88133) - https://sketch.com -->
    <title>app-icon-1</title>
    <desc>Created with Sketch.</desc>
    <g id="Page-1" stroke="none" stroke-width="1" fill="none" fill-rule="evenodd">
        <g id="diplomatiq" transform="translate(-885.000000, -691.000000)">
            <g id="Group-5" transform="translate(839.000000, 172.000000)">
                <g id="Group-4" transform="translate(47.000000, 520.000000)">
                    <g id="app-icon-1">
                        <circle id="Oval" stroke="#565656" fill="#22222C" cx="70" cy="70" r="70"></circle>
                        <g id="Group" transform="translate(38.000000, 44.000000)">
                            <path d="M14.62,50.3 C30.26,50.3 42.024,45.2 42.024,25.616 C42.024,6.032 30.26,1 14.62,1 L0,1 L0,50.3 L14.62,50.3 Z M14.6230582,42.6824165 L9.724,42.684 L9.724,8.616 L14.212,8.616 C23.12,8.616 31.96,10.86 31.96,25.616 C31.96,40.2788923 23.3899077,42.6140364 14.6230582,42.6824165 L14.6230582,42.6824165 Z" id="Diplomatiq" fill="#4477BB" fill-rule="nonzero"></path>
                            <path d="M59,14 L62,50 L55,54 L48,50 L51,14 L59,14 Z M62,0 L59,10 L51,10 L48,0 L62,0 Z" id="Combined-Shape" fill="#C6D5F0"></path>
                        </g>
                    </g>
                </g>
            </g>
        </g>
    </g>
</svg>