<?xml version="1.0" encoding="UTF-8"?>
<svg width="520px" height="92px" viewBox="0 0 520 92" version="1.1" xmlns="http://www.w3.org/2000/svg" xmlns:xlink="http://www.w3.org/1999/xlink">
    <!-- Generator: Sketch 60.1 (88133) - https://sketch.com -->
    <title>logo</title>
    <desc>Created with Sketch.</desc>
    <g id="Page-1" stroke="none" stroke-width="1" fill="none" fill-rule="evenodd">
        <g id="diplomatiq" transform="translate(-896.000000, -172.000000)">
            <g id="Group-5" transform="translate(839.000000, 172.000000)">
                <g id="logo" transform="translate(57.000000, 0.000000)">
                    <path d="M21.93,73.95 C45.39,73.95 63.036,66.3 63.036,36.924 C63.036,7.548 45.39,-4.08562073e-14 21.93,-4.08562073e-14 L-1.42108547e-14,-4.08562073e-14 L-1.42108547e-14,73.95 L21.93,73.95 Z M21.9345874,62.5236248 L14.586,62.526 L14.586,11.424 L21.318,11.424 C34.68,11.424 47.94,14.79 47.94,36.924 C47.94,58.9183385 35.0848615,62.4210547 21.9345874,62.5236248 L21.9345874,62.5236248 Z M113.832,91.8 L113.832,67.014 C117.402,73.134 123.828,75.276 129.54,75.276 C142.596,75.276 153.51,64.056 153.51,46.512 C153.51,29.274 142.902,17.85 129.642,17.85 C122.706,17.85 116.79,20.91 113.832,26.112 L113.832,19.074 L99.756,19.074 L99.756,91.8 L113.832,91.8 Z M126.174,64.464 C118.422,64.464 113.322,57.936 113.322,46.512 C113.322,35.496 118.422,28.662 126.174,28.662 C133.518,28.662 138.72,36.006 138.72,46.614 C138.72,57.324 133.518,64.464 126.174,64.464 Z M176.664,73.95 L176.664,-4.08562073e-14 L162.588,-4.08562073e-14 L162.588,73.95 L176.664,73.95 Z M213.18,75.276 C227.052,75.276 240.72,65.79 240.72,46.614 C240.72,27.336 227.052,17.85 213.18,17.85 C199.308,17.85 185.64,27.336 185.64,46.614 C185.64,65.79 199.308,75.276 213.18,75.276 Z M213.18,64.26 C205.428,64.26 199.92,58.344 199.92,46.614 C199.92,34.884 205.428,28.866 213.18,28.866 C220.932,28.866 226.44,34.884 226.44,46.614 C226.44,58.344 220.932,64.26 213.18,64.26 Z M263.772,73.95 L263.772,45.39 C263.772,37.026 265.2,29.172 274.686,29.172 C282.948,29.172 283.458,36.006 283.458,42.024 L283.458,73.95 L297.534,73.95 L297.534,45.39 C297.534,37.026 298.962,29.172 308.448,29.172 C316.71,29.172 317.22,36.006 317.22,42.024 L317.22,73.95 L331.296,73.95 L331.296,39.372 C331.296,26.418 326.502,17.85 312.732,17.85 C304.47,17.85 299.064,20.706 294.678,26.826 C292.536,22.746 288.456,17.85 279.072,17.85 C272.442,17.85 266.934,20.91 263.772,26.316 L263.772,19.074 L249.696,19.074 L249.696,73.95 L263.772,73.95 Z M360.672,75.276 C368.934,75.276 374.646,72.828 378.624,67.116 C378.93,69.87 379.134,72.216 379.542,73.95 L392.496,73.95 C391.374,69.36 390.864,64.464 390.864,55.794 C390.864,50.898 391.068,43.452 391.068,41.82 C391.068,23.358 380.358,17.646 367.404,17.646 C353.226,17.646 344.454,25.602 343.332,36.414 L356.49,36.414 C356.796,30.294 361.284,27.54 366.69,27.54 C372.402,27.54 376.992,30.498 376.992,38.964 L376.992,39.882 C355.368,42.33 340.884,46.206 340.884,59.16 C340.884,69.156 350.166,75.276 360.672,75.276 Z M364.854,65.688 C358.428,65.688 355.368,62.424 355.368,58.446 C355.368,52.326 361.59,50.49 377.4,48.858 L377.4,52.938 C377.4,60.996 373.728,65.688 364.854,65.688 Z M430.032,73.95 L430.032,63.852 L425.748,63.852 C420.75,63.852 418.812,62.73 418.812,57.12 L418.812,28.764 L430.236,28.764 L430.236,19.074 L418.812,19.074 L418.812,4.182 L404.736,4.182 L404.736,19.074 L396.984,19.074 L396.984,28.764 L404.736,28.764 L404.736,59.16 C404.736,70.074 407.082,73.95 419.73,73.95 L430.032,73.95 Z M519.12,91.8 L519.12,19.074 L505.044,19.074 L505.044,26.112 C502.086,20.91 496.17,17.85 489.234,17.85 C475.974,17.85 465.366,29.274 465.366,46.512 C465.366,64.056 476.178,75.276 489.234,75.276 C494.946,75.276 501.474,73.134 505.044,67.014 L505.044,91.8 L519.12,91.8 Z M492.702,64.464 C485.358,64.464 480.156,57.324 480.156,46.614 C480.156,36.006 485.358,28.662 492.702,28.662 C500.454,28.662 505.554,35.496 505.554,46.512 C505.554,57.936 500.454,64.464 492.702,64.464 Z" id="Diplomatiq" fill="#4477BB" fill-rule="nonzero"></path>
                    <path d="M85.5,21 L90,75 L79.5,81 L69,75 L73.5,21 L85.5,21 Z M90,1.13686838e-13 L85.5,15 L73.5,15 L69,1.13686838e-13 L90,1.13686838e-13 Z" id="Combined-Shape" fill="#C6D5F0"></path>
                    <path d="M454.5,21.1958496 L459,75.1958496 L448.5,81.1958496 L438,75.1958496 L442.5,21.1958496 L454.5,21.1958496 Z M459,0.195849609 L454.5,15.1958496 L442.5,15.1958496 L438,0.195849609 L459,0.195849609 Z" id="Combined-Shape-Copy" fill="#C6D5F0"></path>
                </g>
            </g>
        </g>
    </g>
</svg>