<?xml version="1.0" standalone="no"?>
<!DOCTYPE svg PUBLIC "-//W3C//DTD SVG 20010904//EN"
 "http://www.w3.org/TR/2001/REC-SVG-20010904/DTD/svg10.dtd">
<svg version="1.0" xmlns="http://www.w3.org/2000/svg"
 width="284.000000pt" height="284.000000pt" viewBox="0 0 284.000000 284.000000"
 preserveAspectRatio="xMidYMid meet">
<metadata>
Created by potrace 1.11, written by Peter Selinger 2001-2013
</metadata>
<g transform="translate(0.000000,284.000000) scale(0.100000,-0.100000)"
fill="#000000" stroke="none">
<path d="M1295 2804 c-213 -31 -348 -69 -487 -139 -400 -199 -672 -560 -754
-1000 -25 -136 -25 -354 0 -490 108 -577 544 -1013 1121 -1121 136 -25 354
-25 490 0 577 108 1013 544 1121 1121 25 136 25 354 0 490 -106 568 -534 1004
-1096 1116 -91 18 -331 32 -395 23z m723 -881 c-3 -10 -16 -55 -29 -100 l-24
-83 -85 0 -85 0 -24 83 c-13 45 -26 90 -29 100 -4 16 7 17 138 17 131 0 142
-1 138 -17z m-708 -28 c215 -68 309 -209 310 -461 0 -270 -98 -415 -326 -479
-44 -12 -118 -18 -286 -22 l-228 -6 0 498 0 497 238 -4 c189 -4 248 -9 292
-23z m682 -555 c14 -173 27 -335 27 -360 l1 -45 -66 -37 c-36 -21 -70 -38 -74
-38 -4 0 -38 17 -74 38 -53 30 -66 42 -66 62 0 37 51 673 56 688 3 9 25 12 86
10 l83 -3 27 -315z"/>
<path d="M980 1430 l0 -340 78 0 c221 0 323 74 352 255 28 174 -30 329 -143
384 -38 19 -177 40 -259 41 l-28 0 0 -340z"/>
</g>
</svg>
